#!OML:ASF F:\VICON\USERDATA\INSTALL\rory3\rory3.ASF
:FULLY-SPECIFIED
:DEGREES
540
root 0.388905 16.6105 36.6615 695.16 70.0625 -44.4006
lowerback 1.73468 2.9436 -2.55475
upperback -4.56486 3.7231 -3.709
thorax -5.62293 1.90522 -2.67475
lowerneck -22.0898 4.28561 -5.20068
upperneck 22.0037 6.96795 3.59165
head 10.3664 3.24407 3.18763
rclavicle -4.21423e-014 -6.36111e-015
rhumerus -2.8304 -5.35692 -40.6713
rradius 47.1837
rwrist 7.18166
rhand -30.5369 -418.208
rfingers 7.12502
rthumb 176.164 451.847
lclavicle -4.21423e-014 -6.36111e-015
lhumerus -26.4839 0.495332 48.6848
lradius 35.8468
lwrist 22.8769
lhand -46.7434 -753.021
lfingers 7.12502
lthumb -19.4605 -3.97519
rfemur -28.5521 -3.61566 34.699
rtibia 36.2237
rfoot -14.507 -21.5971
rtoes -11.9572
lfemur -52.9778 23.8912 -1.12818
ltibia 48.2082
lfoot -5.7237 37.4428
ltoes 18.0504
541
root 0.359701 16.6258 36.7428 700.43 70.2134 -39.3653
lowerback 1.20568 2.79808 -2.78488
upperback -4.82166 3.53453 -4.09734
thorax -5.58709 1.82172 -2.92017
lowerneck -23.9034 3.88546 -3.08247
upperneck 24.6776 6.38816 1.64356
head 11.9058 2.83713 2.2157
rclavicle -4.77083e-015 4.77083e-014
rhumerus -3.00965 -5.30445 -42.89
rradius 47.1926
rwrist 7.88813
rhand -30.6992 -418.412
rfingers 7.12502
rthumb 176.007 451.646
lclavicle -4.77083e-015 4.77083e-014
lhumerus -26.9205 0.910373 47.9077
lradius 36.3033
lwrist 24.2589
lhand -45.4404 -756.249
lfingers 7.12502
lthumb -18.2074 -7.08147
rfemur -29.4253 -3.93193 33.4856
rtibia 36.7144
rfoot -14.8847 -20.9454
rtoes -12.2111
lfemur -52.5698 23.1854 -2.22268
ltibia 48.2176
lfoot -7.4752 35.7302
ltoes 18.4852
542
root 0.344262 16.6319 36.837 704.116 69.6593 -35.5728
lowerback 0.80226 2.70339 -2.70853
upperback -4.9297 3.42902 -4.20953
thorax -5.46166 1.76714 -3.05403
lowerneck -23.1347 3.68777 -3.57572
upperneck 24.4027 6.06803 2.2844
head 11.618 2.75013 2.44859
rclavicle 2.66371e-014 -2.22639e-014
rhumerus -3.02538 -4.96064 -45.2259
rradius 47.2094
rwrist 8.56074
rhand -31.1245 -418.845
rfingers 7.12502
rthumb 175.597 451.221
lclavicle 2.66371e-014 -2.22639e-014
lhumerus -27.8161 0.378735 47.6851
lradius 37.0388
lwrist 24.0929
lhand -49.0157 -751.993
lfingers 7.12502
lthumb -21.6441 -3.18245
rfemur -29.7282 -3.87136 32.8882
rtibia 37.2234
rfoot -15.3691 -20.321
rtoes -11.9549
lfemur -51.739 23.2413 -2.6547
ltibia 48.4127
lfoot -12.3473 33.186
ltoes 23.1074
543
root 0.325304 16.6271 36.9385 706.91 69.1805 -32.7042
lowerback 0.438234 2.50901 -2.62134
upperback -4.96214 3.194 -4.13067
thorax -5.29346 1.64973 -2.98772
lowerneck -22.6245 3.42953 -4.67136
upperneck 24.1267 5.76649 3.33287
head 11.3486 2.66477 2.93873
rclavicle 5.1684e-014 2.54444e-014
rhumerus -2.89186 -4.42361 -47.3739
rradius 47.2602
rwrist 8.97651
rhand -31.3586 -418.804
rfingers 7.12502
rthumb 175.371 451.266
lclavicle 5.1684e-014 2.54444e-014
lhumerus -28.6215 1.01046 47.3205
lradius 37.5505
lwrist 24.3347
lhand -50.2417 -751.237
lfingers 7.12502
lthumb -22.8211 -2.56673
rfemur -30.0201 -3.70712 32.4919
rtibia 37.6764
rfoot -15.8596 -19.8434
rtoes -11.0108
lfemur -51.2637 23.7304 -3.35262
ltibia 48.6077
lfoot -14.5475 30.098
ltoes 25.0131
544
root 0.305155 16.6339 37.0432 709.209 68.6542 -30.2898
lowerback 0.169742 2.35327 -2.42447
upperback -4.95859 3.0086 -4.01794
thorax -5.13643 1.55159 -2.9555
lowerneck -23.9365 2.87041 -4.85856
upperneck 25.7368 5.14042 3.42039
head 12.2495 2.33784 3.00704
rclavicle 3.57812e-014 2.8625e-014
rhumerus -2.86982 -3.93335 -49.3741
rradius 47.3598
rwrist 9.27693
rhand -31.3711 -418.508
rfingers 7.12502
rthumb 175.359 451.563
lclavicle 3.57812e-014 2.8625e-014
lhumerus -29.3327 1.5117 47.1037
lradius 37.9289
lwrist 24.2048
lhand -50.8297 -749.547
lfingers 7.12502
lthumb -23.3853 -0.947465
rfemur -30.1977 -3.35905 32.2029
rtibia 38.0618
rfoot -16.3437 -19.5408
rtoes -9.97299
lfemur -51.2313 24.9494 -4.54889
ltibia 48.9886
lfoot -7.9327 28.3933
ltoes 10.1542
545
root 0.284832 16.6617 37.1452 711.326 67.9767 -28.0441
lowerback -0.0989278 2.33869 -2.19991
upperback -4.9942 3.00802 -4.00183
thorax -5.00919 1.54296 -3.05072
lowerneck -20.2982 2.84063 -7.1507
upperneck 21.9605 5.01057 5.45112
head 10.0072 2.42485 3.83784
rclavicle -2.34566e-014 3.18055e-014
rhumerus -3.27968 -3.58698 -51.3154
rradius 47.5271
rwrist 9.59064
rhand -31.3951 -418.338
rfingers 7.12502
rthumb 175.335 451.733
lclavicle -2.34566e-014 3.18055e-014
lhumerus -29.8684 1.47932 46.9145
lradius 38.3054
lwrist 24.2966
lhand -43.9884 -754.008
lfingers 7.12502
lthumb -16.81 -4.71589
rfemur -30.2917 -2.74337 31.9261
rtibia 38.4116
rfoot -16.706 -19.4646
rtoes -9.28885
lfemur -49.7572 21.9357 -3.23053
ltibia 49.2486
lfoot -13.8434 28.509
ltoes 16.8882
546
root 0.26702 16.6609 37.2411 713.613 67.1569 -25.5472
lowerback -0.290916 2.36585 -2.0801
upperback -5.03825 3.05416 -4.04521
thorax -4.93579 1.56092 -3.15611
lowerneck -22.9029 2.22017 -5.78583
upperneck 25.4702 4.26055 4.22492
head 11.9422 1.97749 3.28257
rclavicle 1.82882e-014 2.54444e-014
rhumerus -3.73317 -3.15551 -53.2132
rradius 47.5906
rwrist 9.89256
rhand -31.5853 -418.288
rfingers 7.12502
rthumb 175.152 451.788
lclavicle 1.82882e-014 2.54444e-014
lhumerus -30.5142 1.97167 46.5501
lradius 38.7992
lwrist 24.6002
lhand -48.9695 -752.04
lfingers 7.12502
lthumb -21.5997 -3.22502
rfemur -30.4135 -2.73946 31.6007
rtibia 38.8202
rfoot -16.7686 -18.9216
rtoes -9.66517
lfemur -49.0104 21.4865 -3.60239
ltibia 49.5186
lfoot -14.9951 27.5163
ltoes 15.6647
